<?xml version="1.0" encoding="UTF-8" standalone="no"?>
<!-- Created with Inkscape (http://www.inkscape.org/) -->

<svg
   xmlns:ns1="http://www.iki.fi/pav/software/textext/"
   xmlns:dc="http://purl.org/dc/elements/1.1/"
   xmlns:cc="http://creativecommons.org/ns#"
   xmlns:rdf="http://www.w3.org/1999/02/22-rdf-syntax-ns#"
   xmlns:svg="http://www.w3.org/2000/svg"
   xmlns="http://www.w3.org/2000/svg"
   xmlns:sodipodi="http://sodipodi.sourceforge.net/DTD/sodipodi-0.dtd"
   xmlns:inkscape="http://www.inkscape.org/namespaces/inkscape"
   inkscape:version="0.91 r13725"
   version="1.1"
   id="svg2"
   viewBox="0 0 429.62598 141.73228"
   height="40mm"
   width="121.25mm"
   sodipodi:docname="graphe-de-calcul.svg">
  <sodipodi:namedview
     inkscape:window-maximized="1"
     inkscape:window-y="24"
     inkscape:window-x="65"
     inkscape:window-height="876"
     inkscape:window-width="1535"
     showgrid="true"
     inkscape:current-layer="layer1"
     inkscape:document-units="px"
     inkscape:cy="119.56187"
     inkscape:cx="214.81299"
     inkscape:zoom="2.0832073"
     inkscape:pageshadow="2"
     inkscape:pageopacity="0.0"
     borderopacity="1.0"
     bordercolor="#666666"
     pagecolor="#ffffff"
     id="base">
    <inkscape:grid
       type="xygrid"
       id="grid4136"
       units="mm"
       spacingx="3.5433071"
       spacingy="3.543307" />
  </sodipodi:namedview>
  <defs
     id="defs4">
    <marker
       inkscape:stockid="Arrow2Mend"
       orient="auto"
       refY="0"
       refX="0"
       id="marker7562"
       style="overflow:visible"
       inkscape:isstock="true">
      <path
         id="path7564"
         style="fill:#000000;fill-opacity:1;fill-rule:evenodd;stroke:#000000;stroke-width:0.625;stroke-linejoin:round;stroke-opacity:1"
         d="M 8.7185878,4.0337352 -2.2072895,0.01601326 8.7185884,-4.0017078 c -1.7454984,2.3720609 -1.7354408,5.6174519 -6e-7,8.035443 z"
         transform="scale(-0.6,-0.6)"
         inkscape:connector-curvature="0" />
    </marker>
    <inkscape:path-effect
       effect="spiro"
       id="path-effect7554"
       is_visible="true" />
    <marker
       inkscape:isstock="true"
       style="overflow:visible"
       id="marker7512"
       refX="0"
       refY="0"
       orient="auto"
       inkscape:stockid="Arrow2Mend"
       inkscape:collect="always">
      <path
         transform="scale(-0.6,-0.6)"
         d="M 8.7185878,4.0337352 -2.2072895,0.01601326 8.7185884,-4.0017078 c -1.7454984,2.3720609 -1.7354408,5.6174519 -6e-7,8.035443 z"
         style="fill:#000000;fill-opacity:1;fill-rule:evenodd;stroke:#000000;stroke-width:0.625;stroke-linejoin:round;stroke-opacity:1"
         id="path7514"
         inkscape:connector-curvature="0" />
    </marker>
    <inkscape:path-effect
       effect="spiro"
       id="path-effect7504"
       is_visible="true" />
    <marker
       inkscape:stockid="Arrow2Mend"
       orient="auto"
       refY="0"
       refX="0"
       id="marker6612"
       style="overflow:visible"
       inkscape:isstock="true"
       inkscape:collect="always">
      <path
         id="path6614"
         style="fill:#000000;fill-opacity:1;fill-rule:evenodd;stroke:#000000;stroke-width:0.625;stroke-linejoin:round;stroke-opacity:1"
         d="M 8.7185878,4.0337352 -2.2072895,0.01601326 8.7185884,-4.0017078 c -1.7454984,2.3720609 -1.7354408,5.6174519 -6e-7,8.035443 z"
         transform="scale(-0.6,-0.6)"
         inkscape:connector-curvature="0" />
    </marker>
    <inkscape:path-effect
       effect="spiro"
       id="path-effect6604"
       is_visible="true" />
    <marker
       inkscape:isstock="true"
       style="overflow:visible"
       id="marker6578"
       refX="0"
       refY="0"
       orient="auto"
       inkscape:stockid="Arrow2Mend"
       inkscape:collect="always">
      <path
         transform="scale(-0.6,-0.6)"
         d="M 8.7185878,4.0337352 -2.2072895,0.01601326 8.7185884,-4.0017078 c -1.7454984,2.3720609 -1.7354408,5.6174519 -6e-7,8.035443 z"
         style="fill:#000000;fill-opacity:1;fill-rule:evenodd;stroke:#000000;stroke-width:0.625;stroke-linejoin:round;stroke-opacity:1"
         id="path6580"
         inkscape:connector-curvature="0" />
    </marker>
    <inkscape:path-effect
       effect="spiro"
       id="path-effect6570"
       is_visible="true" />
    <marker
       inkscape:stockid="Arrow2Mend"
       orient="auto"
       refY="0"
       refX="0"
       id="Arrow2Mend"
       style="overflow:visible"
       inkscape:isstock="true"
       inkscape:collect="always">
      <path
         id="path5363"
         style="fill:#000000;fill-opacity:1;fill-rule:evenodd;stroke:#000000;stroke-width:0.625;stroke-linejoin:round;stroke-opacity:1"
         d="M 8.7185878,4.0337352 -2.2072895,0.01601326 8.7185884,-4.0017078 c -1.7454984,2.3720609 -1.7354408,5.6174519 -6e-7,8.035443 z"
         transform="scale(-0.6,-0.6)"
         inkscape:connector-curvature="0" />
    </marker>
    <marker
       inkscape:stockid="Arrow2Lend"
       orient="auto"
       refY="0"
       refX="0"
       id="Arrow2Lend"
       style="overflow:visible"
       inkscape:isstock="true">
      <path
         id="path5357"
         style="fill:#000000;fill-opacity:1;fill-rule:evenodd;stroke:#000000;stroke-width:0.625;stroke-linejoin:round;stroke-opacity:1"
         d="M 8.7185878,4.0337352 -2.2072895,0.01601326 8.7185884,-4.0017078 c -1.7454984,2.3720609 -1.7354408,5.6174519 -6e-7,8.035443 z"
         transform="matrix(-1.1,0,0,-1.1,-1.1,0)"
         inkscape:connector-curvature="0" />
    </marker>
    <inkscape:path-effect
       effect="spiro"
       id="path-effect5330"
       is_visible="true" />
    <marker
       inkscape:stockid="Arrow2Mend"
       orient="auto"
       refY="0"
       refX="0"
       id="Arrow2Mend-1"
       style="overflow:visible"
       inkscape:isstock="true">
      <path
         inkscape:connector-curvature="0"
         id="path5363-1"
         style="fill:#000000;fill-opacity:1;fill-rule:evenodd;stroke:#000000;stroke-width:0.625;stroke-linejoin:round;stroke-opacity:1"
         d="M 8.7185878,4.0337352 -2.2072895,0.01601326 8.7185884,-4.0017078 c -1.7454984,2.3720609 -1.7354408,5.6174519 -6e-7,8.035443 z"
         transform="scale(-0.6,-0.6)" />
    </marker>
    <inkscape:path-effect
       effect="spiro"
       id="path-effect5330-0"
       is_visible="true" />
  </defs>
  <metadata
     id="metadata7">
    <rdf:RDF>
      <cc:Work
         rdf:about="">
        <dc:format>image/svg+xml</dc:format>
        <dc:type
           rdf:resource="http://purl.org/dc/dcmitype/StillImage" />
        <dc:title></dc:title>
      </cc:Work>
    </rdf:RDF>
  </metadata>
  <g
     inkscape:label="Layer 1"
     inkscape:groupmode="layer"
     id="layer1"
     transform="translate(0,-910.62993)">
    <g
       id="g7598"
       transform="translate(0,141.73227)">
      <g
         id="g4144"
         ns1:jacobian_sqrt="1.25"
         inkscapeversion="0.91"
         ns1:alignment="middle center"
         ns1:scale="1.0"
         ns1:preamble="/home/boisgera/.config/inkscape/extensions/textext/default_packages.tex"
         ns1:text="$x$"
         ns1:pdfconverter="pdf2svg"
         ns1:texconverter="lualatex"
         ns1:version="0.10.1"
         transform="matrix(1.25,0,0,1.25,-154.15455,664.79404)">
        <g
           id="surface1">
          <g
             id="g4147"
             style="fill:#000000;fill-opacity:1">
            <path
               id="path4149"
               transform="translate(148.712,134.765)"
               d="M 3.328125,-3.015625 C 3.390625,-3.265625 3.625,-4.1875 4.3125,-4.1875 c 0.046875,0 0.296875,0 0.5,0.125 C 4.53125,-4 4.34375,-3.765625 4.34375,-3.515625 c 0,0.15625 0.109375,0.34375 0.375,0.34375 0.21875,0 0.53125,-0.171875 0.53125,-0.578125 0,-0.515625 -0.578125,-0.65625 -0.921875,-0.65625 -0.578125,0 -0.921875,0.53125 -1.046875,0.75 -0.25,-0.65625 -0.78125,-0.75 -1.078125,-0.75 -1.03125,0 -1.609375,1.28125 -1.609375,1.53125 0,0.109375 0.109375,0.109375 0.125,0.109375 0.078125,0 0.109375,-0.03125 0.125,-0.109375 0.34375,-1.0625 1,-1.3125 1.34375,-1.3125 0.1875,0 0.53125,0.09375 0.53125,0.671875 0,0.3125 -0.171875,0.96875 -0.53125,2.375 -0.15625,0.609375 -0.515625,1.03125 -0.953125,1.03125 -0.0625,0 -0.28125,0 -0.5,-0.125 0.25,-0.0625 0.46875,-0.265625 0.46875,-0.546875 0,-0.265625 -0.21875,-0.34375 -0.359375,-0.34375 -0.3125,0 -0.546875,0.25 -0.546875,0.578125 0,0.453125 0.484375,0.65625 0.921875,0.65625 0.671875,0 1.03125,-0.703125 1.046875,-0.75 0.125,0.359375 0.484375,0.75 1.078125,0.75 1.03125,0 1.59375,-1.28125 1.59375,-1.53125 0,-0.109375 -0.078125,-0.109375 -0.109375,-0.109375 -0.09375,0 -0.109375,0.046875 -0.140625,0.109375 -0.328125,1.078125 -1,1.3125 -1.3125,1.3125 -0.390625,0 -0.546875,-0.3125 -0.546875,-0.65625 0,-0.21875 0.046875,-0.4375 0.15625,-0.875 z m 0,0"
               style="stroke:none;stroke-width:0"
               inkscape:connector-curvature="0" />
          </g>
        </g>
      </g>
      <g
         transform="matrix(1.25,0,0,1.25,-82.917407,638.54678)"
         ns1:version="0.10.1"
         ns1:texconverter="lualatex"
         ns1:pdfconverter="pdf2svg"
         ns1:text="$f$"
         ns1:preamble="/home/boisgera/.config/inkscape/extensions/textext/default_packages.tex"
         ns1:scale="1.0"
         ns1:alignment="middle center"
         inkscapeversion="0.91"
         ns1:jacobian_sqrt="1.25"
         id="g4169">
        <g
           id="g4171">
          <g
             style="fill:#000000;fill-opacity:1"
             id="g4173">
            <path
               style="stroke:none;stroke-width:0"
               d="m 3.65625,-3.984375 0.859375,0 c 0.203125,0 0.296875,0 0.296875,-0.203125 0,-0.109375 -0.09375,-0.109375 -0.265625,-0.109375 l -0.828125,0 0.203125,-1.140625 c 0.046875,-0.203125 0.1875,-0.90625 0.25,-1.03125 0.078125,-0.1875 0.25,-0.34375 0.46875,-0.34375 0.03125,0 0.296875,0 0.484375,0.1875 -0.4375,0.03125 -0.546875,0.390625 -0.546875,0.53125 0,0.234375 0.1875,0.359375 0.375,0.359375 C 5.21875,-5.734375 5.5,-5.96875 5.5,-6.34375 c 0,-0.453125 -0.453125,-0.6875 -0.859375,-0.6875 -0.34375,0 -0.96875,0.1875 -1.265625,1.171875 -0.0625,0.203125 -0.09375,0.3125 -0.328125,1.5625 l -0.6875,0 c -0.203125,0 -0.3125,0 -0.3125,0.1875 0,0.125 0.09375,0.125 0.28125,0.125 l 0.65625,0 -0.734375,3.9375 c -0.1875,0.96875 -0.359375,1.875 -0.875,1.875 -0.046875,0 -0.28125,0 -0.484375,-0.1875 C 1.359375,1.609375 1.453125,1.25 1.453125,1.109375 1.453125,0.875 1.265625,0.75 1.078125,0.75 0.8125,0.75 0.53125,0.984375 0.53125,1.359375 c 0,0.4375 0.4375,0.6875 0.84375,0.6875 0.546875,0 0.953125,-0.59375 1.125,-0.96875 0.328125,-0.625 0.546875,-1.828125 0.5625,-1.90625 z m 0,0"
               transform="translate(148.712,134.765)"
               id="path4175"
               inkscape:connector-curvature="0" />
          </g>
        </g>
      </g>
      <g
         id="g4203"
         ns1:jacobian_sqrt="1.25"
         inkscapeversion="0.91"
         ns1:alignment="middle center"
         ns1:scale="1.0"
         ns1:preamble="/home/boisgera/.config/inkscape/extensions/textext/default_packages.tex"
         ns1:text="$g$"
         ns1:pdfconverter="pdf2svg"
         ns1:texconverter="lualatex"
         ns1:version="0.10.1"
         transform="matrix(1.25,0,0,1.25,-82.19475,707.77231)">
        <g
           id="g4205">
          <g
             id="g4207"
             style="fill:#000000;fill-opacity:1">
            <path
               id="path4209"
               transform="translate(148.712,134.765)"
               d="M 4.6875,-3.765625 C 4.703125,-3.8125 4.71875,-3.875 4.71875,-3.9375 c 0,-0.171875 -0.109375,-0.265625 -0.28125,-0.265625 -0.09375,0 -0.375,0.0625 -0.40625,0.421875 -0.1875,-0.359375 -0.53125,-0.625 -0.9375,-0.625 -1.125,0 -2.359375,1.390625 -2.359375,2.828125 0,0.984375 0.59375,1.578125 1.3125,1.578125 0.59375,0 1.0625,-0.46875 1.15625,-0.578125 L 3.21875,-0.5625 C 3.015625,0.3125 2.890625,0.734375 2.890625,0.75 2.84375,0.84375 2.515625,1.828125 1.453125,1.828125 1.265625,1.828125 0.9375,1.8125 0.65625,1.71875 0.953125,1.640625 1.0625,1.375 1.0625,1.203125 c 0,-0.15625 -0.109375,-0.34375 -0.375,-0.34375 -0.21875,0 -0.53125,0.171875 -0.53125,0.578125 0,0.40625 0.359375,0.609375 1.3125,0.609375 1.25,0 1.96875,-0.78125 2.125,-1.375 z M 3.40625,-1.28125 C 3.34375,-1.015625 3.109375,-0.765625 2.890625,-0.578125 2.6875,-0.40625 2.375,-0.21875 2.078125,-0.21875 c -0.5,0 -0.640625,-0.515625 -0.640625,-0.921875 0,-0.46875 0.28125,-1.65625 0.5625,-2.15625 C 2.265625,-3.78125 2.6875,-4.1875 3.109375,-4.1875 c 0.65625,0 0.796875,0.8125 0.796875,0.859375 0,0.046875 -0.015625,0.109375 -0.03125,0.140625 z m 0,0"
               style="stroke:none;stroke-width:0"
               inkscape:connector-curvature="0" />
          </g>
        </g>
      </g>
      <g
         transform="matrix(1.25,0,0,1.25,-46.458118,629.70159)"
         ns1:version="0.10.1"
         ns1:texconverter="lualatex"
         ns1:pdfconverter="pdf2svg"
         ns1:text="$f(x)$"
         ns1:preamble="/home/boisgera/.config/inkscape/extensions/textext/default_packages.tex"
         ns1:scale="1.0"
         ns1:alignment="middle center"
         inkscapeversion="0.91"
         ns1:jacobian_sqrt="1.25"
         id="g4245">
        <g
           id="g4247">
          <g
             style="fill:#000000;fill-opacity:1"
             id="g4249">
            <path
               style="stroke:none;stroke-width:0"
               d="m 3.65625,-3.984375 0.859375,0 c 0.203125,0 0.296875,0 0.296875,-0.203125 0,-0.109375 -0.09375,-0.109375 -0.265625,-0.109375 l -0.828125,0 0.203125,-1.140625 c 0.046875,-0.203125 0.1875,-0.90625 0.25,-1.03125 0.078125,-0.1875 0.25,-0.34375 0.46875,-0.34375 0.03125,0 0.296875,0 0.484375,0.1875 -0.4375,0.03125 -0.546875,0.390625 -0.546875,0.53125 0,0.234375 0.1875,0.359375 0.375,0.359375 C 5.21875,-5.734375 5.5,-5.96875 5.5,-6.34375 c 0,-0.453125 -0.453125,-0.6875 -0.859375,-0.6875 -0.34375,0 -0.96875,0.1875 -1.265625,1.171875 -0.0625,0.203125 -0.09375,0.3125 -0.328125,1.5625 l -0.6875,0 c -0.203125,0 -0.3125,0 -0.3125,0.1875 0,0.125 0.09375,0.125 0.28125,0.125 l 0.65625,0 -0.734375,3.9375 c -0.1875,0.96875 -0.359375,1.875 -0.875,1.875 -0.046875,0 -0.28125,0 -0.484375,-0.1875 C 1.359375,1.609375 1.453125,1.25 1.453125,1.109375 1.453125,0.875 1.265625,0.75 1.078125,0.75 0.8125,0.75 0.53125,0.984375 0.53125,1.359375 c 0,0.4375 0.4375,0.6875 0.84375,0.6875 0.546875,0 0.953125,-0.59375 1.125,-0.96875 0.328125,-0.625 0.546875,-1.828125 0.5625,-1.90625 z m 0,0"
               transform="translate(148.712,134.765)"
               id="path4251"
               inkscape:connector-curvature="0" />
          </g>
          <g
             style="fill:#000000;fill-opacity:1"
             id="g4253">
            <path
               style="stroke:none;stroke-width:0"
               d="m 3.296875,2.390625 c 0,-0.03125 0,-0.046875 -0.171875,-0.21875 C 1.890625,0.921875 1.5625,-0.96875 1.5625,-2.5 c 0,-1.734375 0.375,-3.46875 1.609375,-4.703125 0.125,-0.125 0.125,-0.140625 0.125,-0.171875 0,-0.078125 -0.03125,-0.109375 -0.09375,-0.109375 -0.109375,0 -1,0.6875 -1.59375,1.953125 -0.5,1.09375 -0.625,2.203125 -0.625,3.03125 0,0.78125 0.109375,1.984375 0.65625,3.125 C 2.25,1.84375 3.09375,2.5 3.203125,2.5 c 0.0625,0 0.09375,-0.03125 0.09375,-0.109375 z m 0,0"
               transform="translate(154.662,134.765)"
               id="path4255"
               inkscape:connector-curvature="0" />
          </g>
          <g
             style="fill:#000000;fill-opacity:1"
             id="g4257">
            <path
               style="stroke:none;stroke-width:0"
               d="M 3.328125,-3.015625 C 3.390625,-3.265625 3.625,-4.1875 4.3125,-4.1875 c 0.046875,0 0.296875,0 0.5,0.125 C 4.53125,-4 4.34375,-3.765625 4.34375,-3.515625 c 0,0.15625 0.109375,0.34375 0.375,0.34375 0.21875,0 0.53125,-0.171875 0.53125,-0.578125 0,-0.515625 -0.578125,-0.65625 -0.921875,-0.65625 -0.578125,0 -0.921875,0.53125 -1.046875,0.75 -0.25,-0.65625 -0.78125,-0.75 -1.078125,-0.75 -1.03125,0 -1.609375,1.28125 -1.609375,1.53125 0,0.109375 0.109375,0.109375 0.125,0.109375 0.078125,0 0.109375,-0.03125 0.125,-0.109375 0.34375,-1.0625 1,-1.3125 1.34375,-1.3125 0.1875,0 0.53125,0.09375 0.53125,0.671875 0,0.3125 -0.171875,0.96875 -0.53125,2.375 -0.15625,0.609375 -0.515625,1.03125 -0.953125,1.03125 -0.0625,0 -0.28125,0 -0.5,-0.125 0.25,-0.0625 0.46875,-0.265625 0.46875,-0.546875 0,-0.265625 -0.21875,-0.34375 -0.359375,-0.34375 -0.3125,0 -0.546875,0.25 -0.546875,0.578125 0,0.453125 0.484375,0.65625 0.921875,0.65625 0.671875,0 1.03125,-0.703125 1.046875,-0.75 0.125,0.359375 0.484375,0.75 1.078125,0.75 1.03125,0 1.59375,-1.28125 1.59375,-1.53125 0,-0.109375 -0.078125,-0.109375 -0.109375,-0.109375 -0.09375,0 -0.109375,0.046875 -0.140625,0.109375 -0.328125,1.078125 -1,1.3125 -1.3125,1.3125 -0.390625,0 -0.546875,-0.3125 -0.546875,-0.65625 0,-0.21875 0.046875,-0.4375 0.15625,-0.875 z m 0,0"
               transform="translate(158.537,134.765)"
               id="path4259"
               inkscape:connector-curvature="0" />
          </g>
          <g
             style="fill:#000000;fill-opacity:1"
             id="g4261">
            <path
               style="stroke:none;stroke-width:0"
               d="m 2.875,-2.5 c 0,-0.765625 -0.109375,-1.96875 -0.65625,-3.109375 -0.59375,-1.21875 -1.453125,-1.875 -1.546875,-1.875 -0.0625,0 -0.109375,0.046875 -0.109375,0.109375 0,0.03125 0,0.046875 0.1875,0.234375 0.984375,0.984375 1.546875,2.5625 1.546875,4.640625 0,1.71875 -0.359375,3.46875 -1.59375,4.71875 C 0.5625,2.34375 0.5625,2.359375 0.5625,2.390625 0.5625,2.453125 0.609375,2.5 0.671875,2.5 0.765625,2.5 1.671875,1.8125 2.25,0.546875 2.765625,-0.546875 2.875,-1.65625 2.875,-2.5 Z m 0,0"
               transform="translate(164.231,134.765)"
               id="path4263"
               inkscape:connector-curvature="0" />
          </g>
        </g>
      </g>
      <g
         id="g4319"
         ns1:jacobian_sqrt="1.25"
         inkscapeversion="0.91"
         ns1:alignment="middle center"
         ns1:scale="1.0"
         ns1:preamble="/home/boisgera/.config/inkscape/extensions/textext/default_packages.tex"
         ns1:text="$g(x)$"
         ns1:pdfconverter="pdf2svg"
         ns1:texconverter="lualatex"
         ns1:version="0.10.1"
         transform="matrix(1.25,0,0,1.25,-45.509121,698.74588)">
        <g
           id="g4321">
          <g
             id="g4323"
             style="fill:#000000;fill-opacity:1">
            <path
               id="path4325"
               transform="translate(148.712,134.765)"
               d="M 4.6875,-3.765625 C 4.703125,-3.8125 4.71875,-3.875 4.71875,-3.9375 c 0,-0.171875 -0.109375,-0.265625 -0.28125,-0.265625 -0.09375,0 -0.375,0.0625 -0.40625,0.421875 -0.1875,-0.359375 -0.53125,-0.625 -0.9375,-0.625 -1.125,0 -2.359375,1.390625 -2.359375,2.828125 0,0.984375 0.59375,1.578125 1.3125,1.578125 0.59375,0 1.0625,-0.46875 1.15625,-0.578125 L 3.21875,-0.5625 C 3.015625,0.3125 2.890625,0.734375 2.890625,0.75 2.84375,0.84375 2.515625,1.828125 1.453125,1.828125 1.265625,1.828125 0.9375,1.8125 0.65625,1.71875 0.953125,1.640625 1.0625,1.375 1.0625,1.203125 c 0,-0.15625 -0.109375,-0.34375 -0.375,-0.34375 -0.21875,0 -0.53125,0.171875 -0.53125,0.578125 0,0.40625 0.359375,0.609375 1.3125,0.609375 1.25,0 1.96875,-0.78125 2.125,-1.375 z M 3.40625,-1.28125 C 3.34375,-1.015625 3.109375,-0.765625 2.890625,-0.578125 2.6875,-0.40625 2.375,-0.21875 2.078125,-0.21875 c -0.5,0 -0.640625,-0.515625 -0.640625,-0.921875 0,-0.46875 0.28125,-1.65625 0.5625,-2.15625 C 2.265625,-3.78125 2.6875,-4.1875 3.109375,-4.1875 c 0.65625,0 0.796875,0.8125 0.796875,0.859375 0,0.046875 -0.015625,0.109375 -0.03125,0.140625 z m 0,0"
               style="stroke:none;stroke-width:0"
               inkscape:connector-curvature="0" />
          </g>
          <g
             id="g4327"
             style="fill:#000000;fill-opacity:1">
            <path
               id="path4329"
               transform="translate(153.822,134.765)"
               d="m 3.296875,2.390625 c 0,-0.03125 0,-0.046875 -0.171875,-0.21875 C 1.890625,0.921875 1.5625,-0.96875 1.5625,-2.5 c 0,-1.734375 0.375,-3.46875 1.609375,-4.703125 0.125,-0.125 0.125,-0.140625 0.125,-0.171875 0,-0.078125 -0.03125,-0.109375 -0.09375,-0.109375 -0.109375,0 -1,0.6875 -1.59375,1.953125 -0.5,1.09375 -0.625,2.203125 -0.625,3.03125 0,0.78125 0.109375,1.984375 0.65625,3.125 C 2.25,1.84375 3.09375,2.5 3.203125,2.5 c 0.0625,0 0.09375,-0.03125 0.09375,-0.109375 z m 0,0"
               style="stroke:none;stroke-width:0"
               inkscape:connector-curvature="0" />
          </g>
          <g
             id="g4331"
             style="fill:#000000;fill-opacity:1">
            <path
               id="path4333"
               transform="translate(157.696,134.765)"
               d="M 3.328125,-3.015625 C 3.390625,-3.265625 3.625,-4.1875 4.3125,-4.1875 c 0.046875,0 0.296875,0 0.5,0.125 C 4.53125,-4 4.34375,-3.765625 4.34375,-3.515625 c 0,0.15625 0.109375,0.34375 0.375,0.34375 0.21875,0 0.53125,-0.171875 0.53125,-0.578125 0,-0.515625 -0.578125,-0.65625 -0.921875,-0.65625 -0.578125,0 -0.921875,0.53125 -1.046875,0.75 -0.25,-0.65625 -0.78125,-0.75 -1.078125,-0.75 -1.03125,0 -1.609375,1.28125 -1.609375,1.53125 0,0.109375 0.109375,0.109375 0.125,0.109375 0.078125,0 0.109375,-0.03125 0.125,-0.109375 0.34375,-1.0625 1,-1.3125 1.34375,-1.3125 0.1875,0 0.53125,0.09375 0.53125,0.671875 0,0.3125 -0.171875,0.96875 -0.53125,2.375 -0.15625,0.609375 -0.515625,1.03125 -0.953125,1.03125 -0.0625,0 -0.28125,0 -0.5,-0.125 0.25,-0.0625 0.46875,-0.265625 0.46875,-0.546875 0,-0.265625 -0.21875,-0.34375 -0.359375,-0.34375 -0.3125,0 -0.546875,0.25 -0.546875,0.578125 0,0.453125 0.484375,0.65625 0.921875,0.65625 0.671875,0 1.03125,-0.703125 1.046875,-0.75 0.125,0.359375 0.484375,0.75 1.078125,0.75 1.03125,0 1.59375,-1.28125 1.59375,-1.53125 0,-0.109375 -0.078125,-0.109375 -0.109375,-0.109375 -0.09375,0 -0.109375,0.046875 -0.140625,0.109375 -0.328125,1.078125 -1,1.3125 -1.3125,1.3125 -0.390625,0 -0.546875,-0.3125 -0.546875,-0.65625 0,-0.21875 0.046875,-0.4375 0.15625,-0.875 z m 0,0"
               style="stroke:none;stroke-width:0"
               inkscape:connector-curvature="0" />
          </g>
          <g
             id="g4335"
             style="fill:#000000;fill-opacity:1">
            <path
               id="path4337"
               transform="translate(163.39,134.765)"
               d="m 2.875,-2.5 c 0,-0.765625 -0.109375,-1.96875 -0.65625,-3.109375 -0.59375,-1.21875 -1.453125,-1.875 -1.546875,-1.875 -0.0625,0 -0.109375,0.046875 -0.109375,0.109375 0,0.03125 0,0.046875 0.1875,0.234375 0.984375,0.984375 1.546875,2.5625 1.546875,4.640625 0,1.71875 -0.359375,3.46875 -1.59375,4.71875 C 0.5625,2.34375 0.5625,2.359375 0.5625,2.390625 0.5625,2.453125 0.609375,2.5 0.671875,2.5 0.765625,2.5 1.671875,1.8125 2.25,0.546875 2.765625,-0.546875 2.875,-1.65625 2.875,-2.5 Z m 0,0"
               style="stroke:none;stroke-width:0"
               inkscape:connector-curvature="0" />
          </g>
        </g>
      </g>
      <g
         transform="matrix(1.25,0,0,1.25,37.928652,664.66383)"
         ns1:version="0.10.1"
         ns1:texconverter="lualatex"
         ns1:pdfconverter="pdf2svg"
         ns1:text="$(f(x), g(x))$"
         ns1:preamble="/home/boisgera/.config/inkscape/extensions/textext/default_packages.tex"
         ns1:scale="1.0"
         ns1:alignment="middle center"
         inkscapeversion="0.91"
         ns1:jacobian_sqrt="1.25"
         id="g4413">
        <g
           id="g4415">
          <g
             style="fill:#000000;fill-opacity:1"
             id="g4417">
            <path
               style="stroke:none;stroke-width:0"
               d="m 3.296875,2.390625 c 0,-0.03125 0,-0.046875 -0.171875,-0.21875 C 1.890625,0.921875 1.5625,-0.96875 1.5625,-2.5 c 0,-1.734375 0.375,-3.46875 1.609375,-4.703125 0.125,-0.125 0.125,-0.140625 0.125,-0.171875 0,-0.078125 -0.03125,-0.109375 -0.09375,-0.109375 -0.109375,0 -1,0.6875 -1.59375,1.953125 -0.5,1.09375 -0.625,2.203125 -0.625,3.03125 0,0.78125 0.109375,1.984375 0.65625,3.125 C 2.25,1.84375 3.09375,2.5 3.203125,2.5 c 0.0625,0 0.09375,-0.03125 0.09375,-0.109375 z m 0,0"
               transform="translate(148.712,134.765)"
               id="path4419"
               inkscape:connector-curvature="0" />
          </g>
          <g
             style="fill:#000000;fill-opacity:1"
             id="g4421">
            <path
               style="stroke:none;stroke-width:0"
               d="m 3.65625,-3.984375 0.859375,0 c 0.203125,0 0.296875,0 0.296875,-0.203125 0,-0.109375 -0.09375,-0.109375 -0.265625,-0.109375 l -0.828125,0 0.203125,-1.140625 c 0.046875,-0.203125 0.1875,-0.90625 0.25,-1.03125 0.078125,-0.1875 0.25,-0.34375 0.46875,-0.34375 0.03125,0 0.296875,0 0.484375,0.1875 -0.4375,0.03125 -0.546875,0.390625 -0.546875,0.53125 0,0.234375 0.1875,0.359375 0.375,0.359375 C 5.21875,-5.734375 5.5,-5.96875 5.5,-6.34375 c 0,-0.453125 -0.453125,-0.6875 -0.859375,-0.6875 -0.34375,0 -0.96875,0.1875 -1.265625,1.171875 -0.0625,0.203125 -0.09375,0.3125 -0.328125,1.5625 l -0.6875,0 c -0.203125,0 -0.3125,0 -0.3125,0.1875 0,0.125 0.09375,0.125 0.28125,0.125 l 0.65625,0 -0.734375,3.9375 c -0.1875,0.96875 -0.359375,1.875 -0.875,1.875 -0.046875,0 -0.28125,0 -0.484375,-0.1875 C 1.359375,1.609375 1.453125,1.25 1.453125,1.109375 1.453125,0.875 1.265625,0.75 1.078125,0.75 0.8125,0.75 0.53125,0.984375 0.53125,1.359375 c 0,0.4375 0.4375,0.6875 0.84375,0.6875 0.546875,0 0.953125,-0.59375 1.125,-0.96875 0.328125,-0.625 0.546875,-1.828125 0.5625,-1.90625 z m 0,0"
               transform="translate(152.587,134.765)"
               id="path4423"
               inkscape:connector-curvature="0" />
          </g>
          <g
             style="fill:#000000;fill-opacity:1"
             id="g4425">
            <path
               style="stroke:none;stroke-width:0"
               d="m 3.296875,2.390625 c 0,-0.03125 0,-0.046875 -0.171875,-0.21875 C 1.890625,0.921875 1.5625,-0.96875 1.5625,-2.5 c 0,-1.734375 0.375,-3.46875 1.609375,-4.703125 0.125,-0.125 0.125,-0.140625 0.125,-0.171875 0,-0.078125 -0.03125,-0.109375 -0.09375,-0.109375 -0.109375,0 -1,0.6875 -1.59375,1.953125 -0.5,1.09375 -0.625,2.203125 -0.625,3.03125 0,0.78125 0.109375,1.984375 0.65625,3.125 C 2.25,1.84375 3.09375,2.5 3.203125,2.5 c 0.0625,0 0.09375,-0.03125 0.09375,-0.109375 z m 0,0"
               transform="translate(158.537,134.765)"
               id="path4427"
               inkscape:connector-curvature="0" />
          </g>
          <g
             style="fill:#000000;fill-opacity:1"
             id="g4429">
            <path
               style="stroke:none;stroke-width:0"
               d="M 3.328125,-3.015625 C 3.390625,-3.265625 3.625,-4.1875 4.3125,-4.1875 c 0.046875,0 0.296875,0 0.5,0.125 C 4.53125,-4 4.34375,-3.765625 4.34375,-3.515625 c 0,0.15625 0.109375,0.34375 0.375,0.34375 0.21875,0 0.53125,-0.171875 0.53125,-0.578125 0,-0.515625 -0.578125,-0.65625 -0.921875,-0.65625 -0.578125,0 -0.921875,0.53125 -1.046875,0.75 -0.25,-0.65625 -0.78125,-0.75 -1.078125,-0.75 -1.03125,0 -1.609375,1.28125 -1.609375,1.53125 0,0.109375 0.109375,0.109375 0.125,0.109375 0.078125,0 0.109375,-0.03125 0.125,-0.109375 0.34375,-1.0625 1,-1.3125 1.34375,-1.3125 0.1875,0 0.53125,0.09375 0.53125,0.671875 0,0.3125 -0.171875,0.96875 -0.53125,2.375 -0.15625,0.609375 -0.515625,1.03125 -0.953125,1.03125 -0.0625,0 -0.28125,0 -0.5,-0.125 0.25,-0.0625 0.46875,-0.265625 0.46875,-0.546875 0,-0.265625 -0.21875,-0.34375 -0.359375,-0.34375 -0.3125,0 -0.546875,0.25 -0.546875,0.578125 0,0.453125 0.484375,0.65625 0.921875,0.65625 0.671875,0 1.03125,-0.703125 1.046875,-0.75 0.125,0.359375 0.484375,0.75 1.078125,0.75 1.03125,0 1.59375,-1.28125 1.59375,-1.53125 0,-0.109375 -0.078125,-0.109375 -0.109375,-0.109375 -0.09375,0 -0.109375,0.046875 -0.140625,0.109375 -0.328125,1.078125 -1,1.3125 -1.3125,1.3125 -0.390625,0 -0.546875,-0.3125 -0.546875,-0.65625 0,-0.21875 0.046875,-0.4375 0.15625,-0.875 z m 0,0"
               transform="translate(162.411,134.765)"
               id="path4431"
               inkscape:connector-curvature="0" />
          </g>
          <g
             style="fill:#000000;fill-opacity:1"
             id="g4433">
            <path
               style="stroke:none;stroke-width:0"
               d="m 2.875,-2.5 c 0,-0.765625 -0.109375,-1.96875 -0.65625,-3.109375 -0.59375,-1.21875 -1.453125,-1.875 -1.546875,-1.875 -0.0625,0 -0.109375,0.046875 -0.109375,0.109375 0,0.03125 0,0.046875 0.1875,0.234375 0.984375,0.984375 1.546875,2.5625 1.546875,4.640625 0,1.71875 -0.359375,3.46875 -1.59375,4.71875 C 0.5625,2.34375 0.5625,2.359375 0.5625,2.390625 0.5625,2.453125 0.609375,2.5 0.671875,2.5 0.765625,2.5 1.671875,1.8125 2.25,0.546875 2.765625,-0.546875 2.875,-1.65625 2.875,-2.5 Z m 0,0"
               transform="translate(168.105,134.765)"
               id="path4435"
               inkscape:connector-curvature="0" />
          </g>
          <g
             style="fill:#000000;fill-opacity:1"
             id="g4437">
            <path
               style="stroke:none;stroke-width:0"
               d="m 2.03125,-0.015625 c 0,-0.65625 -0.25,-1.046875 -0.640625,-1.046875 -0.328125,0 -0.53125,0.25 -0.53125,0.53125 C 0.859375,-0.265625 1.0625,0 1.390625,0 1.5,0 1.640625,-0.046875 1.734375,-0.125 1.765625,-0.15625 1.78125,-0.15625 1.78125,-0.15625 c 0.015625,0 0.015625,0 0.015625,0.140625 0,0.75 -0.34375,1.34375 -0.671875,1.671875 -0.109375,0.109375 -0.109375,0.125 -0.109375,0.15625 0,0.078125 0.046875,0.109375 0.09375,0.109375 0.109375,0 0.921875,-0.765625 0.921875,-1.9375 z m 0,0"
               transform="translate(171.979,134.765)"
               id="path4439"
               inkscape:connector-curvature="0" />
          </g>
          <g
             style="fill:#000000;fill-opacity:1"
             id="g4441">
            <path
               style="stroke:none;stroke-width:0"
               d="M 4.6875,-3.765625 C 4.703125,-3.8125 4.71875,-3.875 4.71875,-3.9375 c 0,-0.171875 -0.109375,-0.265625 -0.28125,-0.265625 -0.09375,0 -0.375,0.0625 -0.40625,0.421875 -0.1875,-0.359375 -0.53125,-0.625 -0.9375,-0.625 -1.125,0 -2.359375,1.390625 -2.359375,2.828125 0,0.984375 0.59375,1.578125 1.3125,1.578125 0.59375,0 1.0625,-0.46875 1.15625,-0.578125 L 3.21875,-0.5625 C 3.015625,0.3125 2.890625,0.734375 2.890625,0.75 2.84375,0.84375 2.515625,1.828125 1.453125,1.828125 1.265625,1.828125 0.9375,1.8125 0.65625,1.71875 0.953125,1.640625 1.0625,1.375 1.0625,1.203125 c 0,-0.15625 -0.109375,-0.34375 -0.375,-0.34375 -0.21875,0 -0.53125,0.171875 -0.53125,0.578125 0,0.40625 0.359375,0.609375 1.3125,0.609375 1.25,0 1.96875,-0.78125 2.125,-1.375 z M 3.40625,-1.28125 C 3.34375,-1.015625 3.109375,-0.765625 2.890625,-0.578125 2.6875,-0.40625 2.375,-0.21875 2.078125,-0.21875 c -0.5,0 -0.640625,-0.515625 -0.640625,-0.921875 0,-0.46875 0.28125,-1.65625 0.5625,-2.15625 C 2.265625,-3.78125 2.6875,-4.1875 3.109375,-4.1875 c 0.65625,0 0.796875,0.8125 0.796875,0.859375 0,0.046875 -0.015625,0.109375 -0.03125,0.140625 z m 0,0"
               transform="translate(176.40042,134.765)"
               id="path4443"
               inkscape:connector-curvature="0" />
          </g>
          <g
             style="fill:#000000;fill-opacity:1"
             id="g4445">
            <path
               style="stroke:none;stroke-width:0"
               d="m 3.296875,2.390625 c 0,-0.03125 0,-0.046875 -0.171875,-0.21875 C 1.890625,0.921875 1.5625,-0.96875 1.5625,-2.5 c 0,-1.734375 0.375,-3.46875 1.609375,-4.703125 0.125,-0.125 0.125,-0.140625 0.125,-0.171875 0,-0.078125 -0.03125,-0.109375 -0.09375,-0.109375 -0.109375,0 -1,0.6875 -1.59375,1.953125 -0.5,1.09375 -0.625,2.203125 -0.625,3.03125 0,0.78125 0.109375,1.984375 0.65625,3.125 C 2.25,1.84375 3.09375,2.5 3.203125,2.5 c 0.0625,0 0.09375,-0.03125 0.09375,-0.109375 z m 0,0"
               transform="translate(181.516,134.765)"
               id="path4447"
               inkscape:connector-curvature="0" />
          </g>
          <g
             style="fill:#000000;fill-opacity:1"
             id="g4449">
            <path
               style="stroke:none;stroke-width:0"
               d="M 3.328125,-3.015625 C 3.390625,-3.265625 3.625,-4.1875 4.3125,-4.1875 c 0.046875,0 0.296875,0 0.5,0.125 C 4.53125,-4 4.34375,-3.765625 4.34375,-3.515625 c 0,0.15625 0.109375,0.34375 0.375,0.34375 0.21875,0 0.53125,-0.171875 0.53125,-0.578125 0,-0.515625 -0.578125,-0.65625 -0.921875,-0.65625 -0.578125,0 -0.921875,0.53125 -1.046875,0.75 -0.25,-0.65625 -0.78125,-0.75 -1.078125,-0.75 -1.03125,0 -1.609375,1.28125 -1.609375,1.53125 0,0.109375 0.109375,0.109375 0.125,0.109375 0.078125,0 0.109375,-0.03125 0.125,-0.109375 0.34375,-1.0625 1,-1.3125 1.34375,-1.3125 0.1875,0 0.53125,0.09375 0.53125,0.671875 0,0.3125 -0.171875,0.96875 -0.53125,2.375 -0.15625,0.609375 -0.515625,1.03125 -0.953125,1.03125 -0.0625,0 -0.28125,0 -0.5,-0.125 0.25,-0.0625 0.46875,-0.265625 0.46875,-0.546875 0,-0.265625 -0.21875,-0.34375 -0.359375,-0.34375 -0.3125,0 -0.546875,0.25 -0.546875,0.578125 0,0.453125 0.484375,0.65625 0.921875,0.65625 0.671875,0 1.03125,-0.703125 1.046875,-0.75 0.125,0.359375 0.484375,0.75 1.078125,0.75 1.03125,0 1.59375,-1.28125 1.59375,-1.53125 0,-0.109375 -0.078125,-0.109375 -0.109375,-0.109375 -0.09375,0 -0.109375,0.046875 -0.140625,0.109375 -0.328125,1.078125 -1,1.3125 -1.3125,1.3125 -0.390625,0 -0.546875,-0.3125 -0.546875,-0.65625 0,-0.21875 0.046875,-0.4375 0.15625,-0.875 z m 0,0"
               transform="translate(185.391,134.765)"
               id="path4451"
               inkscape:connector-curvature="0" />
          </g>
          <g
             style="fill:#000000;fill-opacity:1"
             id="g4453">
            <path
               style="stroke:none;stroke-width:0"
               d="m 2.875,-2.5 c 0,-0.765625 -0.109375,-1.96875 -0.65625,-3.109375 -0.59375,-1.21875 -1.453125,-1.875 -1.546875,-1.875 -0.0625,0 -0.109375,0.046875 -0.109375,0.109375 0,0.03125 0,0.046875 0.1875,0.234375 0.984375,0.984375 1.546875,2.5625 1.546875,4.640625 0,1.71875 -0.359375,3.46875 -1.59375,4.71875 C 0.5625,2.34375 0.5625,2.359375 0.5625,2.390625 0.5625,2.453125 0.609375,2.5 0.671875,2.5 0.765625,2.5 1.671875,1.8125 2.25,0.546875 2.765625,-0.546875 2.875,-1.65625 2.875,-2.5 Z m 0,0"
               transform="translate(191.085,134.765)"
               id="path4455"
               inkscape:connector-curvature="0" />
            <path
               style="stroke:none;stroke-width:0"
               d="m 2.875,-2.5 c 0,-0.765625 -0.109375,-1.96875 -0.65625,-3.109375 -0.59375,-1.21875 -1.453125,-1.875 -1.546875,-1.875 -0.0625,0 -0.109375,0.046875 -0.109375,0.109375 0,0.03125 0,0.046875 0.1875,0.234375 0.984375,0.984375 1.546875,2.5625 1.546875,4.640625 0,1.71875 -0.359375,3.46875 -1.59375,4.71875 C 0.5625,2.34375 0.5625,2.359375 0.5625,2.390625 0.5625,2.453125 0.609375,2.5 0.671875,2.5 0.765625,2.5 1.671875,1.8125 2.25,0.546875 2.765625,-0.546875 2.875,-1.65625 2.875,-2.5 Z m 0,0"
               transform="translate(194.95947,134.765)"
               id="path4457"
               inkscape:connector-curvature="0" />
          </g>
        </g>
      </g>
      <g
         id="g4579"
         ns1:jacobian_sqrt="1.25"
         inkscapeversion="0.91"
         ns1:alignment="middle center"
         ns1:scale="1.0"
         ns1:preamble="/home/boisgera/.config/inkscape/extensions/textext/default_packages.tex"
         ns1:text="$f(x)g(x)$"
         ns1:pdfconverter="pdf2svg"
         ns1:texconverter="lualatex"
         ns1:version="0.10.1"
         transform="matrix(1.25,0,0,1.25,161.34937,664.66383)">
        <g
           id="g4581">
          <g
             id="g4583"
             style="fill:#000000;fill-opacity:1">
            <path
               id="path4585"
               transform="translate(148.712,134.765)"
               d="m 3.65625,-3.984375 0.859375,0 c 0.203125,0 0.296875,0 0.296875,-0.203125 0,-0.109375 -0.09375,-0.109375 -0.265625,-0.109375 l -0.828125,0 0.203125,-1.140625 c 0.046875,-0.203125 0.1875,-0.90625 0.25,-1.03125 0.078125,-0.1875 0.25,-0.34375 0.46875,-0.34375 0.03125,0 0.296875,0 0.484375,0.1875 -0.4375,0.03125 -0.546875,0.390625 -0.546875,0.53125 0,0.234375 0.1875,0.359375 0.375,0.359375 C 5.21875,-5.734375 5.5,-5.96875 5.5,-6.34375 c 0,-0.453125 -0.453125,-0.6875 -0.859375,-0.6875 -0.34375,0 -0.96875,0.1875 -1.265625,1.171875 -0.0625,0.203125 -0.09375,0.3125 -0.328125,1.5625 l -0.6875,0 c -0.203125,0 -0.3125,0 -0.3125,0.1875 0,0.125 0.09375,0.125 0.28125,0.125 l 0.65625,0 -0.734375,3.9375 c -0.1875,0.96875 -0.359375,1.875 -0.875,1.875 -0.046875,0 -0.28125,0 -0.484375,-0.1875 C 1.359375,1.609375 1.453125,1.25 1.453125,1.109375 1.453125,0.875 1.265625,0.75 1.078125,0.75 0.8125,0.75 0.53125,0.984375 0.53125,1.359375 c 0,0.4375 0.4375,0.6875 0.84375,0.6875 0.546875,0 0.953125,-0.59375 1.125,-0.96875 0.328125,-0.625 0.546875,-1.828125 0.5625,-1.90625 z m 0,0"
               style="stroke:none;stroke-width:0"
               inkscape:connector-curvature="0" />
          </g>
          <g
             id="g4587"
             style="fill:#000000;fill-opacity:1">
            <path
               id="path4589"
               transform="translate(154.662,134.765)"
               d="m 3.296875,2.390625 c 0,-0.03125 0,-0.046875 -0.171875,-0.21875 C 1.890625,0.921875 1.5625,-0.96875 1.5625,-2.5 c 0,-1.734375 0.375,-3.46875 1.609375,-4.703125 0.125,-0.125 0.125,-0.140625 0.125,-0.171875 0,-0.078125 -0.03125,-0.109375 -0.09375,-0.109375 -0.109375,0 -1,0.6875 -1.59375,1.953125 -0.5,1.09375 -0.625,2.203125 -0.625,3.03125 0,0.78125 0.109375,1.984375 0.65625,3.125 C 2.25,1.84375 3.09375,2.5 3.203125,2.5 c 0.0625,0 0.09375,-0.03125 0.09375,-0.109375 z m 0,0"
               style="stroke:none;stroke-width:0"
               inkscape:connector-curvature="0" />
          </g>
          <g
             id="g4591"
             style="fill:#000000;fill-opacity:1">
            <path
               id="path4593"
               transform="translate(158.537,134.765)"
               d="M 3.328125,-3.015625 C 3.390625,-3.265625 3.625,-4.1875 4.3125,-4.1875 c 0.046875,0 0.296875,0 0.5,0.125 C 4.53125,-4 4.34375,-3.765625 4.34375,-3.515625 c 0,0.15625 0.109375,0.34375 0.375,0.34375 0.21875,0 0.53125,-0.171875 0.53125,-0.578125 0,-0.515625 -0.578125,-0.65625 -0.921875,-0.65625 -0.578125,0 -0.921875,0.53125 -1.046875,0.75 -0.25,-0.65625 -0.78125,-0.75 -1.078125,-0.75 -1.03125,0 -1.609375,1.28125 -1.609375,1.53125 0,0.109375 0.109375,0.109375 0.125,0.109375 0.078125,0 0.109375,-0.03125 0.125,-0.109375 0.34375,-1.0625 1,-1.3125 1.34375,-1.3125 0.1875,0 0.53125,0.09375 0.53125,0.671875 0,0.3125 -0.171875,0.96875 -0.53125,2.375 -0.15625,0.609375 -0.515625,1.03125 -0.953125,1.03125 -0.0625,0 -0.28125,0 -0.5,-0.125 0.25,-0.0625 0.46875,-0.265625 0.46875,-0.546875 0,-0.265625 -0.21875,-0.34375 -0.359375,-0.34375 -0.3125,0 -0.546875,0.25 -0.546875,0.578125 0,0.453125 0.484375,0.65625 0.921875,0.65625 0.671875,0 1.03125,-0.703125 1.046875,-0.75 0.125,0.359375 0.484375,0.75 1.078125,0.75 1.03125,0 1.59375,-1.28125 1.59375,-1.53125 0,-0.109375 -0.078125,-0.109375 -0.109375,-0.109375 -0.09375,0 -0.109375,0.046875 -0.140625,0.109375 -0.328125,1.078125 -1,1.3125 -1.3125,1.3125 -0.390625,0 -0.546875,-0.3125 -0.546875,-0.65625 0,-0.21875 0.046875,-0.4375 0.15625,-0.875 z m 0,0"
               style="stroke:none;stroke-width:0"
               inkscape:connector-curvature="0" />
          </g>
          <g
             id="g4595"
             style="fill:#000000;fill-opacity:1">
            <path
               id="path4597"
               transform="translate(164.231,134.765)"
               d="m 2.875,-2.5 c 0,-0.765625 -0.109375,-1.96875 -0.65625,-3.109375 -0.59375,-1.21875 -1.453125,-1.875 -1.546875,-1.875 -0.0625,0 -0.109375,0.046875 -0.109375,0.109375 0,0.03125 0,0.046875 0.1875,0.234375 0.984375,0.984375 1.546875,2.5625 1.546875,4.640625 0,1.71875 -0.359375,3.46875 -1.59375,4.71875 C 0.5625,2.34375 0.5625,2.359375 0.5625,2.390625 0.5625,2.453125 0.609375,2.5 0.671875,2.5 0.765625,2.5 1.671875,1.8125 2.25,0.546875 2.765625,-0.546875 2.875,-1.65625 2.875,-2.5 Z m 0,0"
               style="stroke:none;stroke-width:0"
               inkscape:connector-curvature="0" />
          </g>
          <g
             id="g4599"
             style="fill:#000000;fill-opacity:1">
            <path
               id="path4601"
               transform="translate(168.105,134.765)"
               d="M 4.6875,-3.765625 C 4.703125,-3.8125 4.71875,-3.875 4.71875,-3.9375 c 0,-0.171875 -0.109375,-0.265625 -0.28125,-0.265625 -0.09375,0 -0.375,0.0625 -0.40625,0.421875 -0.1875,-0.359375 -0.53125,-0.625 -0.9375,-0.625 -1.125,0 -2.359375,1.390625 -2.359375,2.828125 0,0.984375 0.59375,1.578125 1.3125,1.578125 0.59375,0 1.0625,-0.46875 1.15625,-0.578125 L 3.21875,-0.5625 C 3.015625,0.3125 2.890625,0.734375 2.890625,0.75 2.84375,0.84375 2.515625,1.828125 1.453125,1.828125 1.265625,1.828125 0.9375,1.8125 0.65625,1.71875 0.953125,1.640625 1.0625,1.375 1.0625,1.203125 c 0,-0.15625 -0.109375,-0.34375 -0.375,-0.34375 -0.21875,0 -0.53125,0.171875 -0.53125,0.578125 0,0.40625 0.359375,0.609375 1.3125,0.609375 1.25,0 1.96875,-0.78125 2.125,-1.375 z M 3.40625,-1.28125 C 3.34375,-1.015625 3.109375,-0.765625 2.890625,-0.578125 2.6875,-0.40625 2.375,-0.21875 2.078125,-0.21875 c -0.5,0 -0.640625,-0.515625 -0.640625,-0.921875 0,-0.46875 0.28125,-1.65625 0.5625,-2.15625 C 2.265625,-3.78125 2.6875,-4.1875 3.109375,-4.1875 c 0.65625,0 0.796875,0.8125 0.796875,0.859375 0,0.046875 -0.015625,0.109375 -0.03125,0.140625 z m 0,0"
               style="stroke:none;stroke-width:0"
               inkscape:connector-curvature="0" />
          </g>
          <g
             id="g4603"
             style="fill:#000000;fill-opacity:1">
            <path
               id="path4605"
               transform="translate(173.214,134.765)"
               d="m 3.296875,2.390625 c 0,-0.03125 0,-0.046875 -0.171875,-0.21875 C 1.890625,0.921875 1.5625,-0.96875 1.5625,-2.5 c 0,-1.734375 0.375,-3.46875 1.609375,-4.703125 0.125,-0.125 0.125,-0.140625 0.125,-0.171875 0,-0.078125 -0.03125,-0.109375 -0.09375,-0.109375 -0.109375,0 -1,0.6875 -1.59375,1.953125 -0.5,1.09375 -0.625,2.203125 -0.625,3.03125 0,0.78125 0.109375,1.984375 0.65625,3.125 C 2.25,1.84375 3.09375,2.5 3.203125,2.5 c 0.0625,0 0.09375,-0.03125 0.09375,-0.109375 z m 0,0"
               style="stroke:none;stroke-width:0"
               inkscape:connector-curvature="0" />
          </g>
          <g
             id="g4607"
             style="fill:#000000;fill-opacity:1">
            <path
               id="path4609"
               transform="translate(177.089,134.765)"
               d="M 3.328125,-3.015625 C 3.390625,-3.265625 3.625,-4.1875 4.3125,-4.1875 c 0.046875,0 0.296875,0 0.5,0.125 C 4.53125,-4 4.34375,-3.765625 4.34375,-3.515625 c 0,0.15625 0.109375,0.34375 0.375,0.34375 0.21875,0 0.53125,-0.171875 0.53125,-0.578125 0,-0.515625 -0.578125,-0.65625 -0.921875,-0.65625 -0.578125,0 -0.921875,0.53125 -1.046875,0.75 -0.25,-0.65625 -0.78125,-0.75 -1.078125,-0.75 -1.03125,0 -1.609375,1.28125 -1.609375,1.53125 0,0.109375 0.109375,0.109375 0.125,0.109375 0.078125,0 0.109375,-0.03125 0.125,-0.109375 0.34375,-1.0625 1,-1.3125 1.34375,-1.3125 0.1875,0 0.53125,0.09375 0.53125,0.671875 0,0.3125 -0.171875,0.96875 -0.53125,2.375 -0.15625,0.609375 -0.515625,1.03125 -0.953125,1.03125 -0.0625,0 -0.28125,0 -0.5,-0.125 0.25,-0.0625 0.46875,-0.265625 0.46875,-0.546875 0,-0.265625 -0.21875,-0.34375 -0.359375,-0.34375 -0.3125,0 -0.546875,0.25 -0.546875,0.578125 0,0.453125 0.484375,0.65625 0.921875,0.65625 0.671875,0 1.03125,-0.703125 1.046875,-0.75 0.125,0.359375 0.484375,0.75 1.078125,0.75 1.03125,0 1.59375,-1.28125 1.59375,-1.53125 0,-0.109375 -0.078125,-0.109375 -0.109375,-0.109375 -0.09375,0 -0.109375,0.046875 -0.140625,0.109375 -0.328125,1.078125 -1,1.3125 -1.3125,1.3125 -0.390625,0 -0.546875,-0.3125 -0.546875,-0.65625 0,-0.21875 0.046875,-0.4375 0.15625,-0.875 z m 0,0"
               style="stroke:none;stroke-width:0"
               inkscape:connector-curvature="0" />
          </g>
          <g
             id="g4611"
             style="fill:#000000;fill-opacity:1">
            <path
               id="path4613"
               transform="translate(182.783,134.765)"
               d="m 2.875,-2.5 c 0,-0.765625 -0.109375,-1.96875 -0.65625,-3.109375 -0.59375,-1.21875 -1.453125,-1.875 -1.546875,-1.875 -0.0625,0 -0.109375,0.046875 -0.109375,0.109375 0,0.03125 0,0.046875 0.1875,0.234375 0.984375,0.984375 1.546875,2.5625 1.546875,4.640625 0,1.71875 -0.359375,3.46875 -1.59375,4.71875 C 0.5625,2.34375 0.5625,2.359375 0.5625,2.390625 0.5625,2.453125 0.609375,2.5 0.671875,2.5 0.765625,2.5 1.671875,1.8125 2.25,0.546875 2.765625,-0.546875 2.875,-1.65625 2.875,-2.5 Z m 0,0"
               style="stroke:none;stroke-width:0"
               inkscape:connector-curvature="0" />
          </g>
        </g>
      </g>
      <circle
         style="opacity:1;fill:#000000;fill-opacity:1;stroke:none;stroke-width:3;stroke-linecap:round;stroke-linejoin:round;stroke-miterlimit:4;stroke-dasharray:none;stroke-dashoffset:0;stroke-opacity:1"
         id="path4692"
         cx="17.716536"
         cy="839.76379"
         r="1.7716535" />
      <rect
         style="opacity:1;fill:none;fill-opacity:1;stroke:#000000;stroke-width:0.88582677;stroke-linecap:round;stroke-linejoin:round;stroke-miterlimit:4;stroke-dasharray:none;stroke-dashoffset:0;stroke-opacity:1"
         id="rect4694"
         width="35.433071"
         height="35.433071"
         x="89.025589"
         y="857.03741" />
      <rect
         style="opacity:1;fill:none;fill-opacity:1;stroke:#000000;stroke-width:0.88582677;stroke-linecap:round;stroke-linejoin:round;stroke-miterlimit:4;stroke-dasharray:none;stroke-dashoffset:0;stroke-opacity:1"
         id="rect4694-4"
         width="35.433071"
         height="35.433071"
         x="89.025589"
         y="786.17126" />
      <rect
         style="opacity:1;fill:none;fill-opacity:1;stroke:#000000;stroke-width:0.88582677;stroke-linecap:round;stroke-linejoin:round;stroke-miterlimit:4;stroke-dasharray:none;stroke-dashoffset:0;stroke-opacity:1"
         id="rect4711"
         width="35.433071"
         height="106.29921"
         x="177.60826"
         y="786.17126" />
      <rect
         style="opacity:1;fill:none;fill-opacity:1;stroke:#000000;stroke-width:0.88582677;stroke-linecap:round;stroke-linejoin:round;stroke-miterlimit:4;stroke-dasharray:none;stroke-dashoffset:0;stroke-opacity:1"
         id="rect4694-4-9"
         width="35.433071"
         height="35.433071"
         x="301.62402"
         y="821.60431" />
      <g
         id="g4994"
         ns1:jacobian_sqrt="1.25"
         inkscapeversion="0.91"
         ns1:alignment="middle center"
         ns1:scale="1.0"
         ns1:preamble="/home/boisgera/.config/inkscape/extensions/textext/default_packages.tex"
         ns1:text="\\sc assemblage"
         ns1:pdfconverter="pdf2svg"
         ns1:texconverter="lualatex"
         ns1:version="0.10.1"
         transform="matrix(0,-1.25,1.25,0,30.091203,1060.8504)">
        <g
           id="g4996">
          <g
             id="g4998"
             style="fill:#000000;fill-opacity:1">
            <path
               id="path5000"
               transform="translate(148.712,134.765)"
               d="m 3.28125,-5.078125 c -0.0625,-0.15625 -0.109375,-0.21875 -0.21875,-0.21875 -0.140625,0 -0.15625,0.0625 -0.21875,0.1875 L 1.25,-0.984375 C 1.140625,-0.71875 0.96875,-0.265625 0.34375,-0.25 l 0,0.25 c 0.21875,-0.015625 0.5,-0.03125 0.71875,-0.03125 0.171875,0 0.625,0.015625 0.828125,0.03125 l 0,-0.25 c -0.421875,-0.015625 -0.4375,-0.359375 -0.4375,-0.453125 0,-0.078125 0,-0.09375 0.328125,-0.984375 l 2.0625,0 0.21875,0.5625 c 0.078125,0.203125 0.21875,0.53125 0.21875,0.59375 C 4.28125,-0.25 3.921875,-0.25 3.75,-0.25 l 0,0.25 c 0.265625,-0.015625 0.859375,-0.03125 1.0625,-0.03125 0.328125,0 0.71875,0.015625 0.953125,0.03125 l 0,-0.25 C 5.21875,-0.25 5.125,-0.296875 5,-0.640625 Z M 3.75,-1.9375 l -1.859375,0 0.9375,-2.40625 z m 0,0"
               style="stroke:none;stroke-width:0"
               inkscape:connector-curvature="0" />
            <path
               id="path5002"
               transform="translate(154.82209,134.765)"
               d="m 3.828125,-5.03125 c 0,-0.15625 0,-0.234375 -0.09375,-0.234375 -0.0625,0 -0.078125,0.015625 -0.21875,0.234375 -0.0625,0.046875 -0.15625,0.203125 -0.203125,0.25 -0.375,-0.359375 -0.828125,-0.484375 -1.234375,-0.484375 -0.90625,0 -1.5625,0.6875 -1.5625,1.453125 0,0.5625 0.3125,0.890625 0.4375,1.015625 C 1.25,-2.5 1.453125,-2.46875 2.359375,-2.25 2.90625,-2.125 3,-2.109375 3.234375,-1.890625 c 0.046875,0.03125 0.3125,0.3125 0.3125,0.75 0,0.5 -0.390625,1.03125 -1.078125,1.03125 C 2.21875,-0.109375 1.671875,-0.15625 1.25,-0.5 0.796875,-0.84375 0.765625,-1.328125 0.75,-1.609375 0.75,-1.6875 0.671875,-1.6875 0.640625,-1.6875 c -0.125,0 -0.125,0.0625 -0.125,0.234375 l 0,1.359375 c 0,0.15625 0,0.234375 0.09375,0.234375 0.0625,0 0.0625,-0.015625 0.21875,-0.234375 0.046875,-0.046875 0.15625,-0.203125 0.1875,-0.25 0.296875,0.25 0.8125,0.484375 1.453125,0.484375 0.96875,0 1.59375,-0.765625 1.59375,-1.5625 0,-0.625 -0.390625,-1.015625 -0.390625,-1.03125 -0.375,-0.375 -0.53125,-0.40625 -1.375,-0.609375 -0.21875,-0.046875 -0.5625,-0.125 -0.625,-0.140625 -0.5,-0.203125 -0.65625,-0.59375 -0.65625,-0.890625 0,-0.46875 0.40625,-0.953125 1.0625,-0.953125 1.265625,0 1.453125,1.171875 1.484375,1.484375 0.03125,0.078125 0.03125,0.140625 0.140625,0.140625 0.125,0 0.125,-0.0625 0.125,-0.25 z m 0,0"
               style="stroke:none;stroke-width:0"
               inkscape:connector-curvature="0" />
            <path
               id="path5004"
               transform="translate(159.38298,134.765)"
               d="m 3.828125,-5.03125 c 0,-0.15625 0,-0.234375 -0.09375,-0.234375 -0.0625,0 -0.078125,0.015625 -0.21875,0.234375 -0.0625,0.046875 -0.15625,0.203125 -0.203125,0.25 -0.375,-0.359375 -0.828125,-0.484375 -1.234375,-0.484375 -0.90625,0 -1.5625,0.6875 -1.5625,1.453125 0,0.5625 0.3125,0.890625 0.4375,1.015625 C 1.25,-2.5 1.453125,-2.46875 2.359375,-2.25 2.90625,-2.125 3,-2.109375 3.234375,-1.890625 c 0.046875,0.03125 0.3125,0.3125 0.3125,0.75 0,0.5 -0.390625,1.03125 -1.078125,1.03125 C 2.21875,-0.109375 1.671875,-0.15625 1.25,-0.5 0.796875,-0.84375 0.765625,-1.328125 0.75,-1.609375 0.75,-1.6875 0.671875,-1.6875 0.640625,-1.6875 c -0.125,0 -0.125,0.0625 -0.125,0.234375 l 0,1.359375 c 0,0.15625 0,0.234375 0.09375,0.234375 0.0625,0 0.0625,-0.015625 0.21875,-0.234375 0.046875,-0.046875 0.15625,-0.203125 0.1875,-0.25 0.296875,0.25 0.8125,0.484375 1.453125,0.484375 0.96875,0 1.59375,-0.765625 1.59375,-1.5625 0,-0.625 -0.390625,-1.015625 -0.390625,-1.03125 -0.375,-0.375 -0.53125,-0.40625 -1.375,-0.609375 -0.21875,-0.046875 -0.5625,-0.125 -0.625,-0.140625 -0.5,-0.203125 -0.65625,-0.59375 -0.65625,-0.890625 0,-0.46875 0.40625,-0.953125 1.0625,-0.953125 1.265625,0 1.453125,1.171875 1.484375,1.484375 0.03125,0.078125 0.03125,0.140625 0.140625,0.140625 0.125,0 0.125,-0.0625 0.125,-0.25 z m 0,0"
               style="stroke:none;stroke-width:0"
               inkscape:connector-curvature="0" />
            <path
               id="path5006"
               transform="translate(163.94388,134.765)"
               d="m 4.859375,-5.09375 -4.4375,0 0,0.25 c 0.671875,0 0.71875,0.0625 0.71875,0.46875 l 0,3.65625 c 0,0.40625 -0.046875,0.46875 -0.71875,0.46875 l 0,0.25 4.5625,0 0.296875,-1.9375 -0.25,0 C 4.859375,-0.734375 4.609375,-0.25 3.34375,-0.25 l -1.078125,0 c -0.359375,0 -0.40625,-0.03125 -0.40625,-0.421875 l 0,-1.84375 0.703125,0 c 0.734375,0 0.859375,0.1875 0.859375,0.859375 l 0.25,0 0,-1.984375 -0.25,0 c 0,0.671875 -0.125,0.875 -0.859375,0.875 l -0.703125,0 0,-1.65625 c 0,-0.390625 0.046875,-0.421875 0.40625,-0.421875 l 1.015625,0 c 1.15625,0 1.40625,0.34375 1.53125,1.4375 l 0.234375,0 z m 0,0"
               style="stroke:none;stroke-width:0"
               inkscape:connector-curvature="0" />
            <path
               id="path5008"
               transform="translate(169.50104,134.765)"
               d="m 5.609375,-4.828125 0.015625,0 0,4.109375 C 5.625,-0.3125 5.578125,-0.25 4.90625,-0.25 l 0,0.25 c 0.203125,-0.015625 0.6875,-0.03125 1.03125,-0.03125 0.359375,0 0.71875,0.015625 1.046875,0.03125 l 0,-0.25 c -0.671875,0 -0.71875,-0.0625 -0.71875,-0.46875 l 0,-3.6875 c 0,-0.40625 0.046875,-0.46875 0.71875,-0.46875 l 0,-0.25 -1.21875,0 c -0.21875,0 -0.25,0 -0.328125,0.1875 L 3.734375,-0.75 2.015625,-4.9375 C 1.9375,-5.125 1.890625,-5.125 1.671875,-5.125 l -1.203125,0 0,0.25 c 0.671875,0 0.71875,0.0625 0.71875,0.46875 l 0,3.40625 c 0,0.21875 0,0.75 -0.71875,0.75 l 0,0.25 C 0.671875,-0.015625 1.125,-0.03125 1.328125,-0.03125 1.46875,-0.03125 1.9375,-0.015625 2.1875,0 l 0,-0.25 C 1.46875,-0.25 1.46875,-0.78125 1.46875,-1 l 0,-3.765625 1.875,4.59375 C 3.375,-0.09375 3.421875,0 3.53125,0 3.625,0 3.671875,-0.09375 3.71875,-0.171875 Z m 0,0"
               style="stroke:none;stroke-width:0"
               inkscape:connector-curvature="0" />
            <path
               id="path5010"
               transform="translate(176.94014,134.765)"
               d="m 3.796875,-2.6875 c 0.671875,-0.140625 1.25,-0.59375 1.25,-1.171875 0,-0.625 -0.703125,-1.265625 -1.78125,-1.265625 l -2.8125,0 0,0.25 c 0.671875,0 0.71875,0.0625 0.71875,0.46875 l 0,3.6875 C 1.171875,-0.3125 1.125,-0.25 0.453125,-0.25 l 0,0.25 3.015625,0 c 1.109375,0 1.8125,-0.671875 1.8125,-1.375 0,-0.65625 -0.640625,-1.203125 -1.484375,-1.3125 z m -1.96875,-1.765625 c 0,-0.390625 0.0625,-0.421875 0.40625,-0.421875 l 0.953125,0 c 0.90625,0 1.0625,0.78125 1.0625,1.015625 0,0.359375 -0.265625,1.09375 -1.296875,1.09375 l -1.125,0 z m 1.5,1.90625 c 0.84375,0 1.125,0.75 1.125,1.171875 0,0.453125 -0.34375,1.125 -1.25,1.125 l -0.96875,0 c -0.34375,0 -0.40625,-0.03125 -0.40625,-0.421875 l 0,-1.875 z m 0,0"
               style="stroke:none;stroke-width:0"
               inkscape:connector-curvature="0" />
            <path
               id="path5012"
               transform="translate(182.71847,134.765)"
               d="m 4.71875,-1.9375 -0.25,0 C 4.390625,-1.140625 4.28125,-0.25 2.890625,-0.25 l -0.625,0 c -0.359375,0 -0.40625,-0.03125 -0.40625,-0.421875 l 0,-3.703125 c 0,-0.5 0.15625,-0.5 0.90625,-0.5 l 0,-0.25 c -0.296875,0.015625 -0.9375,0.03125 -1.234375,0.03125 -0.25,0 -0.75,-0.015625 -1.109375,-0.03125 l 0,0.25 c 0.671875,0 0.71875,0.0625 0.71875,0.46875 l 0,3.6875 c 0,0.40625 -0.046875,0.46875 -0.71875,0.46875 l 0,0.25 4.109375,0 z m 0,0"
               style="stroke:none;stroke-width:0"
               inkscape:connector-curvature="0" />
            <path
               id="path5014"
               transform="translate(187.8323,134.765)"
               d="m 3.28125,-5.078125 c -0.0625,-0.15625 -0.109375,-0.21875 -0.21875,-0.21875 -0.140625,0 -0.15625,0.0625 -0.21875,0.1875 L 1.25,-0.984375 C 1.140625,-0.71875 0.96875,-0.265625 0.34375,-0.25 l 0,0.25 c 0.21875,-0.015625 0.5,-0.03125 0.71875,-0.03125 0.171875,0 0.625,0.015625 0.828125,0.03125 l 0,-0.25 c -0.421875,-0.015625 -0.4375,-0.359375 -0.4375,-0.453125 0,-0.078125 0,-0.09375 0.328125,-0.984375 l 2.0625,0 0.21875,0.5625 c 0.078125,0.203125 0.21875,0.53125 0.21875,0.59375 C 4.28125,-0.25 3.921875,-0.25 3.75,-0.25 l 0,0.25 c 0.265625,-0.015625 0.859375,-0.03125 1.0625,-0.03125 0.328125,0 0.71875,0.015625 0.953125,0.03125 l 0,-0.25 C 5.21875,-0.25 5.125,-0.296875 5,-0.640625 Z M 3.75,-1.9375 l -1.859375,0 0.9375,-2.40625 z m 0,0"
               style="stroke:none;stroke-width:0"
               inkscape:connector-curvature="0" />
          </g>
          <g
             id="g5016"
             style="fill:#000000;fill-opacity:1">
            <path
               id="path5018"
               transform="translate(193.72321,134.765)"
               d="m 5.375,-5.03125 c 0,-0.15625 0,-0.234375 -0.09375,-0.234375 -0.0625,0 -0.078125,0.015625 -0.15625,0.125 l -0.390625,0.5 c -0.375,-0.40625 -0.890625,-0.625 -1.4375,-0.625 -1.5,0 -2.78125,1.171875 -2.78125,2.703125 0,1.484375 1.234375,2.703125 2.796875,2.703125 0.34375,0 1.078125,-0.046875 1.46875,-0.59375 0.09375,0.140625 0.390625,0.4375 0.5,0.4375 0.09375,0 0.09375,-0.078125 0.09375,-0.21875 l 0,-1.125 C 5.375,-1.75 5.40625,-1.8125 5.9375,-1.8125 l 0,-0.25 c -0.328125,0.015625 -0.734375,0.03125 -1,0.03125 -0.359375,0 -0.9375,0 -1.28125,-0.03125 l 0,0.25 0.203125,0 c 0.75,0 0.796875,0.109375 0.796875,0.5 l 0,0.3125 c 0,0.21875 0,0.46875 -0.40625,0.6875 -0.21875,0.140625 -0.546875,0.203125 -0.84375,0.203125 -0.609375,0 -2.046875,-0.328125 -2.046875,-2.453125 0,-2.1875 1.515625,-2.453125 2,-2.453125 0.734375,0 1.5625,0.515625 1.75,1.78125 0.03125,0.078125 0.03125,0.140625 0.140625,0.140625 0.125,0 0.125,-0.0625 0.125,-0.25 z m 0,0"
               style="stroke:none;stroke-width:0"
               inkscape:connector-curvature="0" />
            <path
               id="path5020"
               transform="translate(200.11026,134.765)"
               d="m 4.859375,-5.09375 -4.4375,0 0,0.25 c 0.671875,0 0.71875,0.0625 0.71875,0.46875 l 0,3.65625 c 0,0.40625 -0.046875,0.46875 -0.71875,0.46875 l 0,0.25 4.5625,0 0.296875,-1.9375 -0.25,0 C 4.859375,-0.734375 4.609375,-0.25 3.34375,-0.25 l -1.078125,0 c -0.359375,0 -0.40625,-0.03125 -0.40625,-0.421875 l 0,-1.84375 0.703125,0 c 0.734375,0 0.859375,0.1875 0.859375,0.859375 l 0.25,0 0,-1.984375 -0.25,0 c 0,0.671875 -0.125,0.875 -0.859375,0.875 l -0.703125,0 0,-1.65625 c 0,-0.390625 0.046875,-0.421875 0.40625,-0.421875 l 1.015625,0 c 1.15625,0 1.40625,0.34375 1.53125,1.4375 l 0.234375,0 z m 0,0"
               style="stroke:none;stroke-width:0"
               inkscape:connector-curvature="0" />
          </g>
        </g>
      </g>
      <g
         transform="matrix(1.25,0,0,1.25,129.74939,673.48178)"
         ns1:version="0.10.1"
         ns1:texconverter="lualatex"
         ns1:pdfconverter="pdf2svg"
         ns1:text="$\\pi$"
         ns1:preamble="/home/boisgera/.config/inkscape/extensions/textext/default_packages.tex"
         ns1:scale="1.0"
         ns1:alignment="middle center"
         inkscapeversion="0.91"
         ns1:jacobian_sqrt="1.25"
         id="g5220">
        <g
           id="g5222">
          <g
             style="fill:#000000;fill-opacity:1"
             id="g5224">
            <path
               inkscape:connector-curvature="0"
               style="stroke:none;stroke-width:0"
               d="m 2.640625,-3.71875 1.125,0 C 3.4375,-2.25 3.34375,-1.8125 3.34375,-1.140625 c 0,0.140625 0,0.40625 0.078125,0.75 0.109375,0.4375 0.21875,0.5 0.359375,0.5 0.203125,0 0.421875,-0.171875 0.421875,-0.375 0,-0.0625 0,-0.078125 -0.0625,-0.21875 -0.296875,-0.71875 -0.296875,-1.375 -0.296875,-1.65625 0,-0.515625 0.078125,-1.0625 0.1875,-1.578125 l 1.125,0 c 0.140625,0 0.5,0 0.5,-0.34375 0,-0.234375 -0.21875,-0.234375 -0.40625,-0.234375 l -3.34375,0 c -0.21875,0 -0.59375,0 -1.03125,0.46875 -0.34375,0.390625 -0.609375,0.84375 -0.609375,0.890625 0,0.015625 0,0.109375 0.125,0.109375 0.078125,0 0.09375,-0.046875 0.15625,-0.125 C 1.03125,-3.71875 1.609375,-3.71875 1.8125,-3.71875 l 0.5625,0 C 2.0625,-2.515625 1.53125,-1.3125 1.109375,-0.40625 1.03125,-0.25 1.03125,-0.234375 1.03125,-0.15625 c 0,0.1875 0.15625,0.265625 0.28125,0.265625 0.296875,0 0.375,-0.28125 0.5,-0.640625 C 1.953125,-1 1.953125,-1.015625 2.078125,-1.515625 Z m 0,0"
               transform="translate(148.712,134.765)"
               id="path5226" />
          </g>
        </g>
      </g>
      <path
         sodipodi:nodetypes="cc"
         inkscape:connector-curvature="0"
         inkscape:original-d="m 124.01575,804.33072 51.1496,0"
         inkscape:path-effect="#path-effect5330"
         id="path5328"
         d="m 124.01575,804.33072 51.1496,0"
         style="fill:none;fill-rule:evenodd;stroke:#000000;stroke-width:0.88582677;stroke-linecap:butt;stroke-linejoin:miter;stroke-miterlimit:4;stroke-dasharray:none;stroke-opacity:1;marker-end:url(#Arrow2Mend)" />
      <path
         sodipodi:nodetypes="cc"
         inkscape:connector-curvature="0"
         inkscape:original-d="m 124.01575,875.19641 51.1496,0"
         inkscape:path-effect="#path-effect5330-0"
         id="path5328-1"
         d="m 124.01575,875.19641 51.1496,0"
         style="fill:none;fill-rule:evenodd;stroke:#000000;stroke-width:0.88582677;stroke-linecap:butt;stroke-linejoin:miter;stroke-miterlimit:4;stroke-dasharray:none;stroke-opacity:1;marker-end:url(#Arrow2Mend-1)" />
      <path
         sodipodi:nodetypes="cccc"
         inkscape:connector-curvature="0"
         inkscape:original-d="m 17.716535,839.76379 35.433071,0 0,-35.43307 33.433071,0"
         inkscape:path-effect="#path-effect6570"
         id="path6568"
         d="m 17.716535,839.76379 35.433071,0 0,-35.43307 33.433071,0"
         style="fill:none;fill-rule:evenodd;stroke:#000000;stroke-width:0.88582677;stroke-linecap:butt;stroke-linejoin:miter;stroke-miterlimit:4;stroke-dasharray:none;stroke-opacity:1;marker-end:url(#marker6578)" />
      <path
         sodipodi:nodetypes="cccc"
         inkscape:connector-curvature="0"
         inkscape:original-d="m 17.716535,839.76379 35.433071,0 0,35.43307 33.433071,0"
         inkscape:path-effect="#path-effect6604"
         id="path6602"
         d="m 17.716535,839.76379 35.433071,0 0,35.43307 33.433071,0"
         style="fill:none;fill-rule:evenodd;stroke:#000000;stroke-width:0.88582677;stroke-linecap:butt;stroke-linejoin:miter;stroke-miterlimit:4;stroke-dasharray:none;stroke-opacity:1;marker-end:url(#marker6612)" />
      <g
         transform="matrix(1.25,0,0,1.25,109.67711,646.03058)"
         ns1:version="0.10.1"
         ns1:texconverter="lualatex"
         ns1:pdfconverter="pdf2svg"
         ns1:text="\\sc produit"
         ns1:preamble="/home/boisgera/.config/inkscape/extensions/textext/default_packages.tex"
         ns1:scale="1.0"
         ns1:alignment="middle center"
         inkscapeversion="0.91"
         ns1:jacobian_sqrt="1.25"
         id="g7351">
        <g
           id="g7353">
          <g
             style="fill:#000000;fill-opacity:1"
             id="g7355">
            <path
               inkscape:connector-curvature="0"
               style="stroke:none;stroke-width:0"
               d="m 3.21875,-2.328125 c 1,0 1.828125,-0.625 1.828125,-1.390625 0,-0.71875 -0.75,-1.40625 -1.890625,-1.40625 l -2.703125,0 0,0.25 c 0.65625,0 0.71875,0.0625 0.71875,0.46875 l 0,3.6875 c 0,0.40625 -0.0625,0.46875 -0.71875,0.46875 l 0,0.25 C 0.734375,-0.015625 1.3125,-0.03125 1.53125,-0.03125 1.75,-0.03125 2.296875,-0.015625 2.609375,0 l 0,-0.25 c -0.671875,0 -0.71875,-0.0625 -0.71875,-0.46875 l 0,-1.609375 z m -1.359375,-2.125 C 1.859375,-4.84375 1.90625,-4.875 2.25,-4.875 l 0.6875,0 c 1.265625,0 1.265625,0.765625 1.265625,1.15625 0,0.390625 0,1.15625 -1.265625,1.15625 l -1.078125,0 z m 0,0"
               transform="translate(148.712,134.765)"
               id="path7357" />
            <path
               inkscape:connector-curvature="0"
               style="stroke:none;stroke-width:0"
               d="M 1.859375,-4.453125 C 1.859375,-4.6875 1.875,-4.796875 1.96875,-4.84375 2.046875,-4.875 2.3125,-4.875 2.5,-4.875 c 0.734375,0 1.578125,0.03125 1.578125,1.09375 0,0.390625 -0.046875,1.109375 -1.34375,1.109375 l -0.875,0 z M 3.625,-2.546875 c 0.6875,-0.171875 1.3125,-0.625 1.3125,-1.234375 0,-0.6875 -0.890625,-1.34375 -2.09375,-1.34375 l -2.390625,0 0,0.25 c 0.65625,0 0.71875,0.0625 0.71875,0.46875 l 0,3.6875 c 0,0.40625 -0.0625,0.46875 -0.71875,0.46875 l 0,0.25 C 0.75,-0.015625 1.21875,-0.03125 1.5,-0.03125 c 0.296875,0 0.8125,0.015625 1.078125,0.03125 l 0,-0.25 c -0.671875,0 -0.71875,-0.0625 -0.71875,-0.46875 l 0,-1.734375 0.890625,0 c 0.25,0 0.515625,0.015625 0.8125,0.3125 0.21875,0.234375 0.21875,0.46875 0.21875,0.90625 0,0.5625 0,0.734375 0.3125,1.046875 0.1875,0.171875 0.578125,0.328125 1.03125,0.328125 0.640625,0 0.78125,-0.625 0.78125,-0.8125 0,-0.0625 0,-0.15625 -0.125,-0.15625 -0.109375,0 -0.125,0.09375 -0.125,0.125 -0.0625,0.609375 -0.421875,0.625 -0.5,0.625 -0.1875,0 -0.28125,-0.125 -0.34375,-0.234375 C 4.734375,-0.484375 4.671875,-0.75 4.546875,-1.390625 4.46875,-1.75 4.359375,-2.25 3.625,-2.546875 Z m 0,0"
               transform="translate(154.26916,134.765)"
               id="path7359" />
          </g>
          <g
             style="fill:#000000;fill-opacity:1"
             id="g7361">
            <path
               inkscape:connector-curvature="0"
               style="stroke:none;stroke-width:0"
               d="m 5.828125,-2.546875 c 0,-1.484375 -1.1875,-2.71875 -2.65625,-2.71875 -1.484375,0 -2.65625,1.234375 -2.65625,2.71875 0,1.515625 1.203125,2.6875 2.65625,2.6875 1.453125,0 2.65625,-1.171875 2.65625,-2.6875 z M 3.171875,-0.125 c -0.703125,0 -1.8125,-0.5625 -1.8125,-2.53125 0,-1.875 1.140625,-2.359375 1.8125,-2.359375 0.671875,0 1.796875,0.5 1.796875,2.359375 0,1.96875 -1.09375,2.53125 -1.796875,2.53125 z m 0,0"
               transform="translate(160.04948,134.765)"
               id="path7363" />
            <path
               inkscape:connector-curvature="0"
               style="stroke:none;stroke-width:0"
               d="m 1.171875,-0.71875 c 0,0.40625 -0.0625,0.46875 -0.71875,0.46875 l 0,0.25 L 3.25,0 C 4.65625,0 5.71875,-1.15625 5.71875,-2.515625 5.71875,-3.890625 4.6875,-5.125 3.25,-5.125 l -2.796875,0 0,0.25 c 0.65625,0 0.71875,0.0625 0.71875,0.46875 z M 2.25,-0.25 c -0.34375,0 -0.390625,-0.03125 -0.390625,-0.421875 l 0,-3.78125 C 1.859375,-4.84375 1.90625,-4.875 2.25,-4.875 l 0.765625,0 c 0.859375,0 1.296875,0.46875 1.4375,0.640625 0.21875,0.28125 0.4375,0.703125 0.4375,1.71875 0,0.8125 -0.15625,1.234375 -0.359375,1.546875 C 4.359375,-0.75 3.9375,-0.25 3.015625,-0.25 Z m 0,0"
               transform="translate(166.38174,134.765)"
               id="path7365" />
            <path
               inkscape:connector-curvature="0"
               style="stroke:none;stroke-width:0"
               d="m 1.859375,-4.40625 c 0,-0.40625 0.046875,-0.46875 0.71875,-0.46875 l 0,-0.25 C 2.296875,-5.109375 1.71875,-5.09375 1.5,-5.09375 c -0.21875,0 -0.765625,-0.015625 -1.078125,-0.03125 l 0,0.25 c 0.6875,0 0.71875,0.0625 0.71875,0.484375 l 0,2.171875 c 0,0.25 0,0.609375 0.03125,0.75 0.078125,0.796875 0.875,1.609375 1.984375,1.609375 1.15625,0 1.796875,-1.015625 1.8125,-1.75 l 0,-2.640625 c 0,-0.40625 0.265625,-0.625 0.71875,-0.625 l 0,-0.25 C 5.4375,-5.109375 4.90625,-5.09375 4.84375,-5.09375 4.5625,-5.09375 4.28125,-5.109375 4,-5.125 l 0,0.25 c 0.71875,0 0.71875,0.53125 0.71875,0.765625 l 0,2.328125 c 0,1.15625 -0.859375,1.671875 -1.53125,1.671875 -0.3125,0 -1.328125,-0.125 -1.328125,-1.609375 z m 0,0"
               transform="translate(172.60241,134.765)"
               id="path7367" />
            <path
               inkscape:connector-curvature="0"
               style="stroke:none;stroke-width:0"
               d="M 1.859375,-4.390625 C 1.859375,-4.828125 1.90625,-4.875 2.625,-4.875 l 0,-0.25 c -0.34375,0.015625 -0.859375,0.03125 -1.125,0.03125 -0.25,0 -0.765625,-0.015625 -1.109375,-0.03125 l 0,0.25 c 0.703125,0 0.75,0.046875 0.75,0.484375 l 0,3.65625 c 0,0.4375 -0.046875,0.484375 -0.75,0.484375 l 0,0.25 C 0.734375,-0.015625 1.25,-0.03125 1.5,-0.03125 c 0.265625,0 0.78125,0.015625 1.125,0.03125 l 0,-0.25 c -0.71875,0 -0.765625,-0.046875 -0.765625,-0.484375 z m 0,0"
               transform="translate(178.7125,134.765)"
               id="path7369" />
            <path
               inkscape:connector-curvature="0"
               style="stroke:none;stroke-width:0"
               d="m 5.390625,-5.0625 -4.890625,0 -0.140625,1.6875 0.25,0 C 0.703125,-4.640625 0.890625,-4.8125 2,-4.8125 c 0.5625,0 0.59375,0 0.59375,0.421875 l 0,3.640625 c 0,0.390625 -0.046875,0.5 -0.8125,0.5 l -0.203125,0 0,0.25 c 0.390625,-0.03125 0.96875,-0.03125 1.375,-0.03125 0.390625,0 0.984375,0 1.375,0.03125 l 0,-0.25 -0.21875,0 C 3.34375,-0.25 3.3125,-0.359375 3.3125,-0.75 l 0,-3.640625 c 0,-0.421875 0.03125,-0.421875 0.578125,-0.421875 1.078125,0 1.296875,0.171875 1.390625,1.4375 l 0.25,0 z m 0,0"
               transform="translate(181.72321,134.765)"
               id="path7371" />
          </g>
        </g>
      </g>
      <path
         sodipodi:nodetypes="cc"
         inkscape:connector-curvature="0"
         inkscape:original-d="m 212.59842,839.76379 86.58268,0"
         inkscape:path-effect="#path-effect7504"
         id="path7502"
         d="m 212.59842,839.76379 86.58268,0"
         style="fill:none;fill-rule:evenodd;stroke:#000000;stroke-width:0.88582677;stroke-linecap:butt;stroke-linejoin:miter;stroke-miterlimit:4;stroke-dasharray:none;stroke-opacity:1;marker-end:url(#marker7512)" />
      <path
         inkscape:connector-curvature="0"
         inkscape:original-d="m 336.61417,839.76379 70.86614,0"
         inkscape:path-effect="#path-effect7554"
         id="path7552"
         d="m 336.61417,839.76379 70.86614,0"
         style="fill:none;fill-rule:evenodd;stroke:#000000;stroke-width:0.88582677;stroke-linecap:butt;stroke-linejoin:miter;stroke-miterlimit:4;stroke-dasharray:none;stroke-opacity:1;marker-end:url(#marker7562)" />
    </g>
  </g>
</svg>
